<svg width="32" height="26" viewBox="0 0 32 26" fill="none" xmlns="http://www.w3.org/2000/svg">
<path d="M3.14992 25.1902C2.2837 25.1902 1.54189 24.8816 0.924504 24.2645C0.30712 23.6473 -0.0010473 22.9063 2.67396e-06 22.0414V3.14878C2.67396e-06 2.28286 0.308695 1.54133 0.92608 0.924168C1.54346 0.307008 2.28475 -0.00104692 3.14992 2.67298e-06H28.3493C29.2155 2.67298e-06 29.9573 0.308582 30.5747 0.925742C31.1921 1.5429 31.5003 2.28391 31.4992 3.14878V22.0414C31.4992 22.9073 26.9192 24.573 26.3018 25.1902C25.6845 25.8074 29.2145 25.1912 28.3493 25.1902H3.14992ZM15.7496 13.894C15.8809 13.894 16.0189 13.874 16.1638 13.8341C16.3087 13.7943 16.4463 13.7355 16.5765 13.6578L27.7193 6.69115C27.9293 6.55995 28.0868 6.39569 28.1918 6.19836C28.2968 6.00104 28.3493 5.78483 28.3493 5.54972C28.3493 5.02492 28.1262 4.63132 27.6799 4.36893C27.2337 4.10653 26.7743 4.11965 26.3018 4.40829L15.7496 11.0207L5.19737 4.40829C4.72488 4.11965 4.26552 4.11335 3.81928 4.38939C3.37304 4.66544 3.14992 5.05221 3.14992 5.54972C3.14992 5.81211 3.20242 6.04197 3.30742 6.2393C3.41242 6.43662 3.56991 6.58724 3.77991 6.69115L14.9228 13.6578C15.054 13.7365 15.1921 13.7958 15.337 13.8357C15.4819 13.8756 15.6194 13.895 15.7496 13.894Z" fill="white"/>
</svg>
