<svg width="20" height="16" viewBox="0 0 20 16" fill="none" xmlns="http://www.w3.org/2000/svg">
<path d="M17.9961 0H1.99609C1.46566 0 0.956953 0.210714 0.58188 0.585786C0.206807 0.960859 -0.00390625 1.46957 -0.00390625 2V14C-0.00390625 14.5304 0.206807 15.0391 0.58188 15.4142C0.956953 15.7893 1.46566 16 1.99609 16H17.9961C18.5265 16 19.0352 15.7893 19.4103 15.4142C19.7854 15.0391 19.9961 14.5304 19.9961 14V2C19.9961 1.46957 19.7854 0.960859 19.4103 0.585786C19.0352 0.210714 18.5265 0 17.9961 0ZM17.9961 4.7L9.99609 10.034L1.99609 4.7V2.297L9.99609 7.63L17.9961 2.297V4.7Z" fill="black" fill-opacity="0.16"/>
</svg>
