<svg width="27" height="30" viewBox="0 0 27 30" fill="none" xmlns="http://www.w3.org/2000/svg">
<path d="M13.125 29.1667C14.0281 29.1678 14.9092 28.8875 15.6457 28.3648C16.3822 27.8421 16.9376 27.1029 17.2346 26.25H9.01542C9.31242 27.1029 9.86778 27.8421 10.6043 28.3648C11.3408 28.8875 12.2219 29.1678 13.125 29.1667ZM23.3333 18.3546V11.6667C23.3333 6.97521 20.1469 3.02312 15.8302 1.83458C15.4029 0.758333 14.3588 0 13.125 0C11.8913 0 10.8471 0.758333 10.4198 1.83458C6.10313 3.02458 2.91667 6.97521 2.91667 11.6667V18.3546L0.427293 20.844C0.291606 20.9792 0.183999 21.1399 0.110666 21.3168C0.0373335 21.4937 -0.00027628 21.6835 1.52786e-06 21.875V23.3333C1.52786e-06 23.7201 0.153647 24.091 0.427137 24.3645C0.700628 24.638 1.07156 24.7917 1.45833 24.7917H24.7917C25.1784 24.7917 25.5494 24.638 25.8229 24.3645C26.0964 24.091 26.25 23.7201 26.25 23.3333V21.875C26.2503 21.6835 26.2127 21.4937 26.1393 21.3168C26.066 21.1399 25.9584 20.9792 25.8227 20.844L23.3333 18.3546Z" fill="black"/>
</svg>
