<svg width="24" height="24" viewBox="0 0 24 24" fill="none" xmlns="http://www.w3.org/2000/svg">
<path d="M19.9961 12C19.9961 10.897 19.0991 10 17.9961 10H16.9961V7C16.9961 4.243 14.7531 2 11.9961 2C9.23909 2 6.99609 4.243 6.99609 7V10H5.99609C4.89309 10 3.99609 10.897 3.99609 12V20C3.99609 21.103 4.89309 22 5.99609 22H17.9961C19.0991 22 19.9961 21.103 19.9961 20V12ZM8.99609 7C8.99609 5.346 10.3421 4 11.9961 4C13.6501 4 14.9961 5.346 14.9961 7V10H8.99609V7Z" fill="black" fill-opacity="0.16"/>
</svg>
