<svg width="80" height="80" viewBox="0 0 80 80" fill="none" xmlns="http://www.w3.org/2000/svg">
<path d="M40.0001 6.6665C21.6201 6.6665 6.66675 18.6298 6.66675 33.3332C6.66675 43.0265 12.9901 51.7198 23.3334 56.4465V73.3332L41.1334 59.9865C58.9901 59.5065 73.3334 47.7332 73.3334 33.3332C73.3334 18.6298 58.3801 6.6665 40.0001 6.6665ZM31.6667 36.6665C30.3407 36.6665 29.0689 36.1397 28.1312 35.202C27.1935 34.2644 26.6667 32.9926 26.6667 31.6665C26.6667 30.3404 27.1935 29.0687 28.1312 28.131C29.0689 27.1933 30.3407 26.6665 31.6667 26.6665C32.9928 26.6665 34.2646 27.1933 35.2023 28.131C36.14 29.0687 36.6667 30.3404 36.6667 31.6665C36.6667 32.9926 36.14 34.2644 35.2023 35.202C34.2646 36.1397 32.9928 36.6665 31.6667 36.6665ZM48.3334 36.6665C47.0073 36.6665 45.7356 36.1397 44.7979 35.202C43.8602 34.2644 43.3334 32.9926 43.3334 31.6665C43.3334 30.3404 43.8602 29.0687 44.7979 28.131C45.7356 27.1933 47.0073 26.6665 48.3334 26.6665C49.6595 26.6665 50.9313 27.1933 51.8689 28.131C52.8066 29.0687 53.3334 30.3404 53.3334 31.6665C53.3334 32.9926 52.8066 34.2644 51.8689 35.202C50.9313 36.1397 49.6595 36.6665 48.3334 36.6665Z" fill="#141C62"/>
</svg>