<svg width="104" height="99" viewBox="0 0 104 99" fill="none" xmlns="http://www.w3.org/2000/svg">
<ellipse cx="52" cy="49.5" rx="52" ry="49.5" fill="#009320"/>
<path fill-rule="evenodd" clip-rule="evenodd" d="M76.1195 25.7641C73.0354 22.6598 69.3661 20.1984 65.324 18.5223C61.2819 16.8463 56.9474 15.989 52.5715 16.0001C34.2227 16.0001 19.2855 30.9336 19.2781 49.2898C19.2781 55.1564 20.8097 60.8821 23.7207 65.9328L19 83.1803L36.648 78.5486C41.5296 81.2059 46.9987 82.5993 52.5567 82.6018H52.5715C70.9167 82.6018 85.8538 67.6683 85.8613 49.3121C85.8739 44.938 85.0194 40.6049 83.3473 36.563C81.6752 32.5212 79.2186 28.8509 76.1195 25.7641ZM52.5715 76.9836H52.5604C47.6043 76.9842 42.7394 75.6507 38.4762 73.1233L37.4675 72.5225L26.9952 75.2704L29.7875 65.0614L29.1312 64.0156C26.3603 59.6043 24.8934 54.4992 24.9 49.2898C24.9074 34.0337 37.3192 21.6219 52.5827 21.6219C56.2178 21.6139 59.8184 22.3268 63.1761 23.7196C66.5338 25.1123 69.582 27.1572 72.1441 29.7358C74.72 32.3021 76.7617 35.3535 78.1512 38.7136C79.5407 42.0738 80.2505 45.676 80.2394 49.3121C80.232 64.5681 67.8202 76.9836 52.5715 76.9836ZM67.7498 56.2578C66.9154 55.8387 62.8288 53.8288 62.0649 53.5507C61.3047 53.2726 60.7521 53.1354 60.1959 53.966C59.6396 54.7967 58.045 56.6694 57.5593 57.2256C57.0735 57.7819 56.5877 57.8486 55.757 57.4333C54.9263 57.018 52.2452 56.1391 49.0672 53.3059C46.5937 51.0995 44.925 48.3776 44.4392 47.5432C43.9534 46.7088 44.3872 46.2601 44.8063 45.8448C45.1808 45.4739 45.637 44.8732 46.0523 44.3874C46.4676 43.9016 46.6048 43.5567 46.883 43.0005C47.1611 42.4442 47.0239 41.9584 46.8125 41.5431C46.6048 41.1241 44.9398 37.0301 44.2463 35.365C43.5751 33.7519 42.8891 33.967 42.3773 33.9447C41.8473 33.9231 41.3169 33.9132 40.7865 33.9151C40.3647 33.9258 39.9496 34.0236 39.5674 34.2023C39.1851 34.3809 38.8439 34.6367 38.5652 34.9534C37.8013 35.7878 35.6541 37.7977 35.6541 41.8917C35.6541 45.9857 38.6356 49.9425 39.051 50.4987C39.4663 51.055 44.9175 59.4544 53.2613 63.0589C55.249 63.9155 56.799 64.4272 58.0043 64.8129C59.9956 65.447 61.809 65.3543 63.2441 65.1429C64.8424 64.9056 68.1651 63.133 68.8585 61.1899C69.552 59.2467 69.552 57.5816 69.3443 57.2331C69.1367 56.8845 68.5767 56.6731 67.7498 56.2578Z" fill="white"/>
</svg>
