<svg width="34" height="34" viewBox="0 0 34 34" fill="none" xmlns="http://www.w3.org/2000/svg">
<path d="M32.9077 16.4101L28.6644 12.1684V6.16676C28.6644 5.94574 28.5766 5.73378 28.4203 5.5775C28.2641 5.42122 28.0521 5.33342 27.8311 5.33342H21.8294L17.5861 1.09009C17.4298 0.933863 17.2179 0.8461 16.9969 0.8461C16.7759 0.8461 16.564 0.933863 16.4077 1.09009L12.1661 5.33342H6.16441C5.94339 5.33342 5.73143 5.42122 5.57515 5.5775C5.41887 5.73378 5.33107 5.94574 5.33107 6.16676V12.1684L1.08774 16.4118C0.931513 16.568 0.84375 16.78 0.84375 17.0009C0.84375 17.2219 0.931513 17.4338 1.08774 17.5901L5.33107 21.8318V27.8334C5.33107 28.0544 5.41887 28.2664 5.57515 28.4227C5.73143 28.579 5.94339 28.6668 6.16441 28.6668H12.1661L16.4094 32.9101C16.5657 33.0663 16.7776 33.1541 16.9986 33.1541C17.2195 33.1541 17.4315 33.0663 17.5877 32.9101L21.8294 28.6668H27.8311C28.0521 28.6668 28.2641 28.579 28.4203 28.4227C28.5766 28.2664 28.6644 28.0544 28.6644 27.8334V21.8318L32.9077 17.5884C33.064 17.4321 33.1517 17.2202 33.1517 16.9993C33.1517 16.7783 33.064 16.5664 32.9077 16.4101ZM16.9977 23.6668C15.2296 23.6668 13.5339 22.9644 12.2837 21.7141C11.0335 20.4639 10.3311 18.7682 10.3311 17.0001C10.3311 15.232 11.0335 13.5363 12.2837 12.286C13.5339 11.0358 15.2296 10.3334 16.9977 10.3334C18.7659 10.3334 20.4615 11.0358 21.7118 12.286C22.962 13.5363 23.6644 15.232 23.6644 17.0001C23.6644 18.7682 22.962 20.4639 21.7118 21.7141C20.4615 22.9644 18.7659 23.6668 16.9977 23.6668Z" fill="black"/>
</svg>
