<svg width="33" height="33" viewBox="0 0 33 33" fill="none" xmlns="http://www.w3.org/2000/svg">
<path d="M32.3324 17.0377L17.7073 0.787658C17.0915 0.101908 15.9085 0.101908 15.2926 0.787658L0.667599 17.0377C0.45709 17.271 0.318914 17.5605 0.269871 17.8709C0.220827 18.1813 0.26303 18.4993 0.391349 18.7862C0.651349 19.3728 1.2331 19.7498 1.87497 19.7498H5.12497V31.1248C5.12497 31.5558 5.29618 31.9691 5.60093 32.2738C5.90567 32.5786 6.319 32.7498 6.74997 32.7498H11.625C12.056 32.7498 12.4693 32.5786 12.774 32.2738C13.0788 31.9691 13.25 31.5558 13.25 31.1248V24.6248H19.75V31.1248C19.75 31.5558 19.9212 31.9691 20.2259 32.2738C20.5307 32.5786 20.944 32.7498 21.375 32.7498H26.25C26.681 32.7498 27.0943 32.5786 27.399 32.2738C27.7038 31.9691 27.875 31.5558 27.875 31.1248V19.7498H31.125C31.4397 19.7511 31.748 19.6609 32.0123 19.49C32.2766 19.3192 32.4855 19.0751 32.6135 18.7876C32.7414 18.5001 32.783 18.1816 32.7331 17.8708C32.6832 17.5601 32.5439 17.2706 32.3324 17.0377Z" fill="black"/>
</svg>
