<svg width="24" height="25" viewBox="0 0 24 25" fill="none" xmlns="http://www.w3.org/2000/svg">
<path d="M4.82667 10.5797C6.74667 14.4232 9.84 17.5605 13.6133 19.5297L16.5467 16.5419C16.9067 16.1752 17.44 16.053 17.9067 16.2159C19.4 16.7184 21.0133 16.9901 22.6667 16.9901C23.4 16.9901 24 17.6012 24 18.3482V23.088C24 23.835 23.4 24.4461 22.6667 24.4461C10.1467 24.4461 0 14.1109 0 1.35812C0 0.611153 0.6 0 1.33333 0H6C6.73333 0 7.33333 0.611153 7.33333 1.35812C7.33333 3.05577 7.6 4.68551 8.09333 6.2066C8.24 6.68194 8.13333 7.21161 7.76 7.59188L4.82667 10.5797Z" fill="white"/>
</svg>
