<svg width="40" height="40" viewBox="0 0 40 40" fill="none" xmlns="http://www.w3.org/2000/svg">
<path d="M32.65 11.1502C30.9886 10.7848 29.4856 9.90256 28.3568 8.62998C27.2279 7.35741 26.5312 5.75995 26.3667 4.06683V3.3335H20.6167V26.1168C20.6178 27.1278 20.3009 28.1134 19.7107 28.9342C19.1206 29.755 18.2871 30.3693 17.3284 30.6901C16.3697 31.0109 15.3344 31.0219 14.3691 30.7216C13.4038 30.4213 12.5575 29.8249 11.95 29.0168C11.4057 28.3016 11.0725 27.4483 10.9879 26.5535C10.9033 25.6587 11.0707 24.7581 11.4713 23.9535C11.8719 23.1489 12.4895 22.4724 13.2545 22.0006C14.0195 21.5288 14.9012 21.2804 15.8 21.2835C16.2971 21.2807 16.7916 21.3537 17.2667 21.5002V15.6668C16.7139 15.5984 16.1568 15.5705 15.6 15.5835C13.5488 15.6383 11.5582 16.2901 9.8718 17.4589C8.18541 18.6278 6.87648 20.2631 6.10529 22.1646C5.3341 24.066 5.13413 26.1511 5.52986 28.1644C5.92559 30.1778 6.89985 32.0321 8.33333 33.5002C9.80247 34.9938 11.6825 36.0171 13.7345 36.4398C15.7865 36.8626 17.9178 36.6658 19.8578 35.8745C21.7977 35.0832 23.4585 33.733 24.6294 31.9956C25.8002 30.2582 26.4281 28.2119 26.4333 26.1168V14.4502C28.7524 16.1067 31.5333 16.9929 34.3833 16.9835V11.3168C33.8235 11.3191 33.2649 11.2633 32.7167 11.1502H32.65Z" fill="#DECFCF"/>
</svg>
