<svg width="40" height="40" viewBox="0 0 40 40" fill="none" xmlns="http://www.w3.org/2000/svg">
<path d="M20.0717 11.5415C17.8713 11.5437 15.7617 12.4187 14.2057 13.9744C12.6497 15.5301 11.7743 17.6395 11.7717 19.8399C11.77 21.4065 12.21 22.9332 13.04 24.2549L13.2367 24.5682L12.3983 27.6299L15.54 26.8065L15.8417 26.9865C17.1209 27.7436 18.5802 28.1426 20.0667 28.1415H20.0683C22.268 28.1384 24.3766 27.2634 25.9321 25.7082C27.4877 24.153 28.3631 22.0445 28.3667 19.8449C28.3705 18.7546 28.158 17.6743 27.7414 16.6667C27.3249 15.6592 26.7126 14.7442 25.94 13.9749C25.1714 13.2013 24.257 12.5879 23.2497 12.1702C22.2423 11.7525 21.1621 11.5388 20.0717 11.5415ZM24.9517 23.4049C24.7433 23.9882 23.7467 24.5182 23.2683 24.5899C22.744 24.6803 22.2057 24.6466 21.6967 24.4915C21.2138 24.342 20.7392 24.1667 20.275 23.9665C17.7717 22.8865 16.1383 20.3682 16.0117 20.1999C15.8883 20.0332 14.995 18.8465 14.995 17.6199C14.995 16.3915 15.6383 15.7882 15.8667 15.5382C15.9505 15.4435 16.053 15.367 16.1677 15.3137C16.2824 15.2604 16.4069 15.2313 16.5333 15.2282C16.7 15.2282 16.865 15.2299 17.0117 15.2365C17.165 15.2432 17.37 15.1782 17.5717 15.6649C17.78 16.1649 18.28 17.3915 18.3417 17.5165C18.4033 17.6399 18.445 17.7865 18.3633 17.9532C18.28 18.1215 18.24 18.2232 18.1133 18.3699C17.99 18.5165 17.8517 18.6949 17.74 18.8082C17.615 18.9315 17.485 19.0665 17.63 19.3165C17.7767 19.5649 18.2767 20.3832 19.0167 21.0449C19.97 21.8949 20.775 22.1565 21.0233 22.2832C21.2733 22.4065 21.4183 22.3882 21.565 22.2199C21.71 22.0515 22.1883 21.4915 22.355 21.2432C22.5217 20.9932 22.6867 21.0349 22.9167 21.1165C23.145 21.2015 24.3717 21.8032 24.62 21.9282C24.8667 22.0515 25.035 22.1149 25.0983 22.2199C25.1583 22.3232 25.1583 22.8215 24.9517 23.4049Z" fill="#DECFCF"/>
<path d="M33.3333 5H6.66667C6.22464 5 5.80072 5.17559 5.48816 5.48816C5.17559 5.80072 5 6.22464 5 6.66667V33.3333C5 33.7754 5.17559 34.1993 5.48816 34.5118C5.80072 34.8244 6.22464 35 6.66667 35H33.3333C33.7754 35 34.1993 34.8244 34.5118 34.5118C34.8244 34.1993 35 33.7754 35 33.3333V6.66667C35 6.22464 34.8244 5.80072 34.5118 5.48816C34.1993 5.17559 33.7754 5 33.3333 5ZM20.0667 29.8267H20.0633C18.3968 29.8268 16.7567 29.4091 15.2933 28.6117L10 30L11.4167 24.8267C10.5416 23.3087 10.0814 21.5872 10.0823 19.8351C10.0832 18.083 10.545 16.362 11.4216 14.8449C12.2981 13.3278 13.5584 12.068 15.0758 11.1921C16.5933 10.3163 18.3146 9.85511 20.0667 9.855C21.3792 9.85137 22.6794 10.1083 23.8919 10.611C25.1044 11.1137 26.205 11.8521 27.13 12.7833C28.0593 13.7089 28.7957 14.8097 29.2966 16.0218C29.7975 17.234 30.0531 18.5334 30.0483 19.845C30.0444 22.4911 28.9915 25.0277 27.1204 26.8987C25.2493 28.7698 22.7127 29.8227 20.0667 29.8267Z" fill="white"/>
</svg>
