<svg width="346" height="232" viewBox="0 0 346 232" fill="none" xmlns="http://www.w3.org/2000/svg">
<path d="M338.221 36.3901C336.256 29.4095 332.416 23.0433 327.084 17.9253C321.751 12.8073 315.112 9.11596 307.826 7.21865C280.813 0.115751 172.742 0.000125482 172.742 0.000125482C172.742 0.000125482 64.6875 -0.115507 37.6568 6.67355C30.376 8.65817 23.7502 12.4017 18.4155 17.5449C13.0809 22.688 9.21645 29.058 7.19328 36.0432C0.0690284 61.911 2.52737e-05 115.563 2.52737e-05 115.563C2.52737e-05 115.563 -0.0689744 169.479 7.00353 195.082C10.971 209.238 22.6148 220.421 37.4153 224.237C64.7048 231.34 172.483 231.456 172.483 231.456C172.483 231.456 280.554 231.571 307.568 224.799C314.856 222.905 321.501 219.222 326.847 214.114C332.193 209.007 336.054 202.651 338.048 195.677C345.19 169.826 345.242 116.19 345.242 116.19C345.242 116.19 345.587 62.2579 338.221 36.3901ZM138.173 165.266L138.259 66.1562L228.08 115.794L138.173 165.266Z" fill="#FF0000"/>
</svg>
